<svg xmlns="http://www.w3.org/2000/svg"  viewBox="0 0 64 64" width="100px" height="100px"><linearGradient id="kVOVJbkMRYZZgFbJN8UFZa" x1="32" x2="32" y1="20" y2="50" gradientUnits="userSpaceOnUse"><stop offset="0" stop-color="#1a6dff"/><stop offset="1" stop-color="#c822ff"/></linearGradient><path fill="url(#kVOVJbkMRYZZgFbJN8UFZa)" d="M47,50H25c-0.307,0-0.597-0.141-0.787-0.383s-0.258-0.557-0.185-0.855l1.714-6.998 c0.109-0.445,0.506-0.759,0.964-0.762L27.613,41l-0.333-1l-1.716-0.003c-0.397-0.003-0.756-0.241-0.912-0.606l-2.33-5.437 c-3.323-0.266-18.323-1.904-19.313-9.831c-0.036-0.285,0.053-0.571,0.243-0.786C3.44,23.123,3.713,23,4,23h13.613l-0.562-1.684 c-0.102-0.305-0.05-0.64,0.138-0.901C17.377,20.154,17.679,20,18,20h42c0.552,0,1,0.448,1,1v4c0,0.492-0.359,0.911-0.844,0.988 c-0.062,0.01-6.267,1.038-9.573,5.25c-2.337,2.978-3.172,6.247-3.462,7.931c-0.082,0.476-0.492,0.825-0.975,0.831L44.721,40 l-0.333,1l0.9,0c0.46,0.001,0.86,0.315,0.97,0.762l1.714,7c0.073,0.298,0.005,0.613-0.185,0.855S47.307,50,47,50z M26.274,48 h19.451l-1.225-5H43c-0.321,0-0.623-0.154-0.811-0.416c-0.188-0.261-0.239-0.596-0.138-0.901l1-3C43.188,38.275,43.569,38,44,38 h1.312c0.435-1.996,1.434-5.113,3.698-7.998c3.053-3.89,8.012-5.367,9.99-5.821V22H19.387l0.562,1.684 c0.102,0.305,0.05,0.64-0.138,0.901C19.623,24.846,19.321,25,19,25H5.291c2.075,5.01,13.308,6.752,17.765,7.001 c0.379,0.021,0.714,0.255,0.863,0.604L26.231,38H28c0.431,0,0.812,0.275,0.949,0.684l1,3c0.102,0.305,0.05,0.64-0.138,0.901 C29.623,42.846,29.321,43,29,43h-1.501L26.274,48z"/><linearGradient id="kVOVJbkMRYZZgFbJN8UFZb" x1="35.624" x2="35.624" y1="23.537" y2="41.084" gradientUnits="userSpaceOnUse"><stop offset="0" stop-color="#6dc7ff"/><stop offset="1" stop-color="#e6abff"/></linearGradient><path fill="url(#kVOVJbkMRYZZgFbJN8UFZb)" d="M38.884,23.544c-0.051-0.095-3.585,0.851-3.853,2.756c-0.177,1.255,1.123,2.495,0.644,2.998	c-0.167,0.175-0.453,0.16-0.657,0.148c-0.948-0.052-1.436-1.054-1.466-1.118c-0.293,0.578-0.468,1.219-0.249,1.794	c0.243,0.639,0.764,0.645,1.246,1.445c0.126,0.209,0.603,1.002,0.399,1.943c-0.031,0.144-0.324,1.396-1.395,1.644	c-0.85,0.197-1.62-0.369-1.993-0.897c-0.489-0.692-0.524-1.637-0.1-2.442c-0.303,0.085-1.323,0.411-1.894,1.395	c-0.754,1.301-0.13,2.729,0.05,3.139c0.912,2.086,3.257,2.755,3.388,2.791c0.841,0.226,1.258,0.089,2.093,0.498	c0.824,0.404,1.366,1.003,1.694,1.445c0.144-0.323,0.395-0.75,0.847-1.046c0.602-0.395,1.112-0.264,1.744-0.399	c1.116-0.237,2.025-1.174,2.392-1.943c0.623-1.306,0.152-3.107-1.146-4.485c0.122,0.313,0.463,1.302,0,2.242	c-0.113,0.23-0.472,0.959-1.046,0.947c-0.457-0.01-0.886-0.485-0.947-0.947c-0.073-0.557,0.422-0.834,0.797-1.595	c0.221-0.448,0.436-1.135,0.349-2.143c-0.037,0.419-0.344,0.765-0.747,0.847c-0.438,0.09-0.875-0.154-1.046-0.548	c-0.194-0.446-0.002-0.981,0.399-1.196c0.387-0.207,0.795-0.024,0.847,0c-0.07-0.29-0.208-0.729-0.498-1.196	c-0.275-0.442-0.457-0.542-0.997-1.196c-0.524-0.636-0.787-0.954-0.897-1.296c-0.27-0.837,0.078-1.632,0.15-1.794	C37.56,24.038,38.916,23.603,38.884,23.544z"/></svg>